<svg id="visual" viewBox="0 0 900 600" width="900" height="600" xmlns="http://www.w3.org/2000/svg" xmlns:xlink="http://www.w3.org/1999/xlink" version="1.1"><rect x="0" y="0" width="900" height="600" fill="#f6f5f4"></rect><defs><linearGradient id="grad1_0" x1="33.3%" y1="100%" x2="100%" y2="0%"><stop offset="20%" stop-color="#ff533d" stop-opacity="1"></stop><stop offset="80%" stop-color="#ff533d" stop-opacity="1"></stop></linearGradient></defs><defs><linearGradient id="grad1_1" x1="33.3%" y1="100%" x2="100%" y2="0%"><stop offset="20%" stop-color="#ff533d" stop-opacity="1"></stop><stop offset="80%" stop-color="#fd9667" stop-opacity="1"></stop></linearGradient></defs><defs><linearGradient id="grad1_2" x1="33.3%" y1="100%" x2="100%" y2="0%"><stop offset="20%" stop-color="#fac9a5" stop-opacity="1"></stop><stop offset="80%" stop-color="#fd9667" stop-opacity="1"></stop></linearGradient></defs><defs><linearGradient id="grad1_3" x1="33.3%" y1="100%" x2="100%" y2="0%"><stop offset="20%" stop-color="#fac9a5" stop-opacity="1"></stop><stop offset="80%" stop-color="#f6f5f4" stop-opacity="1"></stop></linearGradient></defs><defs><linearGradient id="grad2_0" x1="0%" y1="100%" x2="66.7%" y2="0%"><stop offset="20%" stop-color="#ff533d" stop-opacity="1"></stop><stop offset="80%" stop-color="#ff533d" stop-opacity="1"></stop></linearGradient></defs><defs><linearGradient id="grad2_1" x1="0%" y1="100%" x2="66.7%" y2="0%"><stop offset="20%" stop-color="#fd9667" stop-opacity="1"></stop><stop offset="80%" stop-color="#ff533d" stop-opacity="1"></stop></linearGradient></defs><defs><linearGradient id="grad2_2" x1="0%" y1="100%" x2="66.7%" y2="0%"><stop offset="20%" stop-color="#fd9667" stop-opacity="1"></stop><stop offset="80%" stop-color="#fac9a5" stop-opacity="1"></stop></linearGradient></defs><defs><linearGradient id="grad2_3" x1="0%" y1="100%" x2="66.7%" y2="0%"><stop offset="20%" stop-color="#f6f5f4" stop-opacity="1"></stop><stop offset="80%" stop-color="#fac9a5" stop-opacity="1"></stop></linearGradient></defs><g transform="translate(900, 600)"><path d="M-351.5 0C-344.9 -66 -338.4 -132 -304.4 -175.8C-270.5 -219.6 -209.3 -241.1 -154 -266.7C-98.7 -292.3 -49.4 -321.9 0 -351.5L0 0Z" fill="#f7e0cb"></path><path d="M-263.7 0C-258.7 -49.5 -253.8 -99 -228.3 -131.8C-202.9 -164.7 -157 -180.9 -115.5 -200.1C-74 -219.2 -37 -241.5 0 -263.7L0 0Z" fill="#fcb084"></path><path d="M-175.8 0C-172.5 -33 -169.2 -66 -152.2 -87.9C-135.3 -109.8 -104.6 -120.6 -77 -133.4C-49.4 -146.2 -24.7 -161 0 -175.8L0 0Z" fill="#fe784f"></path><path d="M-87.9 0C-86.2 -16.5 -84.6 -33 -76.1 -43.9C-67.6 -54.9 -52.3 -60.3 -38.5 -66.7C-24.7 -73.1 -12.3 -80.5 0 -87.9L0 0Z" fill="#ff533d"></path></g><g transform="translate(0, 0)"><path d="M351.5 0C309 41.9 266.5 83.8 242.5 140C218.5 196.2 213.1 266.8 175.8 304.4C138.4 342.1 69.2 346.8 0 351.5L0 0Z" fill="#f7e0cb"></path><path d="M263.7 0C231.8 31.4 199.8 62.8 181.9 105C163.9 147.2 159.8 200.1 131.8 228.3C103.8 256.6 51.9 260.1 0 263.7L0 0Z" fill="#fcb084"></path><path d="M175.8 0C154.5 20.9 133.2 41.9 121.2 70C109.3 98.1 106.5 133.4 87.9 152.2C69.2 171 34.6 173.4 0 175.8L0 0Z" fill="#fe784f"></path><path d="M87.9 0C77.3 10.5 66.6 20.9 60.6 35C54.6 49.1 53.3 66.7 43.9 76.1C34.6 85.5 17.3 86.7 0 87.9L0 0Z" fill="#ff533d"></path></g></svg>