<svg xmlns="http://www.w3.org/2000/svg" version="1.1" xmlns:xlink="http://www.w3.org/1999/xlink" xmlns:svgjs="http://svgjs.com/svgjs" width="1440" height="800" preserveAspectRatio="none" viewBox="0 0 1440 800"><g mask="url(&quot;#SvgjsMask2086&quot;)" fill="none"><rect width="332.08" height="332.08" clip-path="url(&quot;#SvgjsClipPath2087&quot;)" x="40.31" y="202.19" fill="url(#SvgjsPattern2088)" transform="rotate(258.21, 206.35, 368.23)"></rect><rect width="103.2" height="103.2" clip-path="url(&quot;#SvgjsClipPath2089&quot;)" x="691.81" y="-36.29" fill="url(#SvgjsPattern2090)" transform="rotate(142.16, 743.41, 15.31)"></rect><path d="M853.58 620.39 L807.02 578.17L799.8708267088883 629.7091732911116z" fill="rgba(255, 83, 61, 1)"></path><path d="M1147.1399999999999 594.59 L1173.04 804.3900000000001L1055.6438767134791 803.9361232865208z" stroke="rgba(255, 83, 61, 1)" stroke-width="1.01" stroke-dasharray="3, 2"></path><rect width="456" height="456" clip-path="url(&quot;#SvgjsClipPath2091&quot;)" x="447.91" y="53.7" fill="url(#SvgjsPattern2092)" transform="rotate(23.07, 675.91, 281.7)"></rect><path d="M65.39 292.35L70.01 304.3 59.38 311.43 64 323.37 53.37 330.51 57.99 342.45 47.36 349.58" stroke="rgba(255, 83, 61, 1)" stroke-width="1" stroke-dasharray="4, 4"></path><path d="M1306.28 375.99 L1405.96 414.09999999999997L1317.2524941360116 433.91250586398826z" stroke="rgba(255, 83, 61, 1)" stroke-width="1.09"></path><path d="M736.89 492.88a5.6 5.6 0 1 0-10.56-3.72 5.6 5.6 0 1 0 10.56 3.72zM721.8 487.57a5.6 5.6 0 1 0-10.56-3.73 5.6 5.6 0 1 0 10.56 3.73zM706.71 482.25a5.6 5.6 0 1 0-10.56-3.73 5.6 5.6 0 1 0 10.56 3.73zM691.62 476.93a5.6 5.6 0 1 0-10.56-3.73 5.6 5.6 0 1 0 10.56 3.73zM772.39 488.43a5.6 5.6 0 1 0-10.56-3.72 5.6 5.6 0 1 0 10.56 3.72zM757.3 483.11a5.6 5.6 0 1 0-10.56-3.72 5.6 5.6 0 1 0 10.56 3.72zM742.21 477.8a5.6 5.6 0 1 0-10.56-3.73 5.6 5.6 0 1 0 10.56 3.73zM727.12 472.48a5.6 5.6 0 1 0-10.56-3.73 5.6 5.6 0 1 0 10.56 3.73zM807.89 483.98a5.6 5.6 0 1 0-10.56-3.72 5.6 5.6 0 1 0 10.56 3.72zM792.8 478.66a5.6 5.6 0 1 0-10.56-3.72 5.6 5.6 0 1 0 10.56 3.72zM777.71 473.35a5.6 5.6 0 1 0-10.56-3.73 5.6 5.6 0 1 0 10.56 3.73zM762.62 468.03a5.6 5.6 0 1 0-10.56-3.73 5.6 5.6 0 1 0 10.56 3.73z" stroke="rgba(255, 83, 61, 1)" stroke-width="1" stroke-dasharray="3, 3"></path><circle r="81.97180647369262" cx="576.5" cy="621.03" stroke="rgba(255, 83, 61, 1)" stroke-width="2.3" stroke-dasharray="4, 4"></circle></g><defs><mask id="SvgjsMask2086"><rect width="1440" height="800" fill="#ffffff"></rect></mask><pattern x="0" y="0" width="11.86" height="11.86" patternUnits="userSpaceOnUse" id="SvgjsPattern2088"><path d="M0 11.86L5.93 0L11.86 11.86" stroke="rgba(255, 83, 61, 1)" fill="none"></path></pattern><clipPath id="SvgjsClipPath2087"><circle r="83.02" cx="206.35" cy="368.23"></circle></clipPath><pattern x="0" y="0" width="103.2" height="10.32" patternUnits="userSpaceOnUse" id="SvgjsPattern2090"><rect width="103.2" height="5.16" x="0" y="0" fill="rgba(255, 83, 61, 1)"></rect><rect width="103.2" height="5.16" x="0" y="5.16" fill="rgba(0, 0, 0, 0)"></rect></pattern><clipPath id="SvgjsClipPath2089"><circle r="25.8" cx="743.41" cy="15.31"></circle></clipPath><pattern x="0" y="0" width="6" height="6" patternUnits="userSpaceOnUse" id="SvgjsPattern2092"><path d="M0 6L3 0L6 6" stroke="rgba(255, 83, 61, 1)" fill="none"></path></pattern><clipPath id="SvgjsClipPath2091"><circle r="114" cx="675.91" cy="281.7"></circle></clipPath></defs></svg>