<svg width="75" height="100" viewBox="0 0 75 100" fill="none" xmlns="http://www.w3.org/2000/svg">
<path d="M53.456 22.104C53.696 21.768 53.984 21.6 54.32 21.6H58.064C58.544 21.6 58.784 21.84 58.784 22.32V71.28C58.784 71.76 58.544 72 58.064 72H54.392C53.912 72 53.672 71.76 53.672 71.28V31.248C53.672 31.104 53.624 31.008 53.528 30.96C53.432 30.912 53.36 30.96 53.312 31.104L41.576 49.104C41.336 49.44 41.048 49.608 40.712 49.608H38.84C38.504 49.608 38.216 49.464 37.976 49.176L26.24 31.32C26.192 31.176 26.12 31.128 26.024 31.176C25.928 31.224 25.88 31.32 25.88 31.464V71.28C25.88 71.76 25.64 72 25.16 72H21.488C21.008 72 20.768 71.76 20.768 71.28V22.32C20.768 21.84 21.008 21.6 21.488 21.6H25.232C25.616 21.6 25.904 21.744 26.096 22.032L39.632 42.552C39.68 42.6 39.752 42.624 39.848 42.624C39.944 42.624 40.016 42.6 40.064 42.552L53.456 22.104Z" fill="#FF6462"/>
<path d="M70.084 25.344C70.084 25.824 69.844 26.064 69.364 26.064H42.868C42.676 26.064 42.58 26.16 42.58 26.352V44.136C42.58 44.328 42.676 44.424 42.868 44.424H61.444C61.924 44.424 62.164 44.664 62.164 45.144V48.168C62.164 48.648 61.924 48.888 61.444 48.888H42.868C42.676 48.888 42.58 48.984 42.58 49.176V67.248C42.58 67.44 42.676 67.536 42.868 67.536H69.364C69.844 67.536 70.084 67.776 70.084 68.256V71.28C70.084 71.76 69.844 72 69.364 72H38.188C37.708 72 37.468 71.76 37.468 71.28V22.32C37.468 21.84 37.708 21.6 38.188 21.6H69.364C69.844 21.6 70.084 21.84 70.084 22.32V25.344Z" fill="#44403C"/>
<path d="M7.488 86C7.008 86 6.768 85.76 6.768 85.28V36.32C6.768 35.84 7.008 35.6 7.488 35.6H11.16C11.64 35.6 11.88 35.84 11.88 36.32V81.248C11.88 81.44 11.976 81.536 12.168 81.536H37.584C38.064 81.536 38.304 81.776 38.304 82.256V85.28C38.304 85.76 38.064 86 37.584 86H7.488Z" fill="#D6D1CD"/>
</svg>
