<svg id="visual" viewBox="0 0 900 600" width="900" height="600" xmlns="http://www.w3.org/2000/svg" xmlns:xlink="http://www.w3.org/1999/xlink" version="1.1"><path d="M0 374L16.7 387.8C33.3 401.7 66.7 429.3 100 424.7C133.3 420 166.7 383 200 375.5C233.3 368 266.7 390 300 398.5C333.3 407 366.7 402 400 403.8C433.3 405.7 466.7 414.3 500 407.5C533.3 400.7 566.7 378.3 600 374.2C633.3 370 666.7 384 700 382.7C733.3 381.3 766.7 364.7 800 373.8C833.3 383 866.7 418 883.3 435.5L900 453L900 601L883.3 601C866.7 601 833.3 601 800 601C766.7 601 733.3 601 700 601C666.7 601 633.3 601 600 601C566.7 601 533.3 601 500 601C466.7 601 433.3 601 400 601C366.7 601 333.3 601 300 601C266.7 601 233.3 601 200 601C166.7 601 133.3 601 100 601C66.7 601 33.3 601 16.7 601L0 601Z" fill="#f9d4b8"></path><path d="M0 475L16.7 474.3C33.3 473.7 66.7 472.3 100 459.3C133.3 446.3 166.7 421.7 200 412.3C233.3 403 266.7 409 300 404.7C333.3 400.3 366.7 385.7 400 381.3C433.3 377 466.7 383 500 397C533.3 411 566.7 433 600 431.7C633.3 430.3 666.7 405.7 700 407C733.3 408.3 766.7 435.7 800 444C833.3 452.3 866.7 441.7 883.3 436.3L900 431L900 601L883.3 601C866.7 601 833.3 601 800 601C766.7 601 733.3 601 700 601C666.7 601 633.3 601 600 601C566.7 601 533.3 601 500 601C466.7 601 433.3 601 400 601C366.7 601 333.3 601 300 601C266.7 601 233.3 601 200 601C166.7 601 133.3 601 100 601C66.7 601 33.3 601 16.7 601L0 601Z" fill="#fcb084"></path><path d="M0 464L16.7 467C33.3 470 66.7 476 100 474.7C133.3 473.3 166.7 464.7 200 467.5C233.3 470.3 266.7 484.7 300 490.3C333.3 496 366.7 493 400 490.7C433.3 488.3 466.7 486.7 500 476.5C533.3 466.3 566.7 447.7 600 450.3C633.3 453 666.7 477 700 482.2C733.3 487.3 766.7 473.7 800 462.7C833.3 451.7 866.7 443.3 883.3 439.2L900 435L900 601L883.3 601C866.7 601 833.3 601 800 601C766.7 601 733.3 601 700 601C666.7 601 633.3 601 600 601C566.7 601 533.3 601 500 601C466.7 601 433.3 601 400 601C366.7 601 333.3 601 300 601C266.7 601 233.3 601 200 601C166.7 601 133.3 601 100 601C66.7 601 33.3 601 16.7 601L0 601Z" fill="#fe875a"></path><path d="M0 519L16.7 522C33.3 525 66.7 531 100 532.7C133.3 534.3 166.7 531.7 200 527.2C233.3 522.7 266.7 516.3 300 514C333.3 511.7 366.7 513.3 400 514.3C433.3 515.3 466.7 515.7 500 521.2C533.3 526.7 566.7 537.3 600 542C633.3 546.7 666.7 545.3 700 538.5C733.3 531.7 766.7 519.3 800 520C833.3 520.7 866.7 534.3 883.3 541.2L900 548L900 601L883.3 601C866.7 601 833.3 601 800 601C766.7 601 733.3 601 700 601C666.7 601 633.3 601 600 601C566.7 601 533.3 601 500 601C466.7 601 433.3 601 400 601C366.7 601 333.3 601 300 601C266.7 601 233.3 601 200 601C166.7 601 133.3 601 100 601C66.7 601 33.3 601 16.7 601L0 601Z" fill="#ff533d"></path></svg>